<?xml version="1.0" encoding="UTF-8" standalone="no"?>
<svg
   version="1.1"
   width="468.95615"
   height="318.3006"
   id="svg13"
   viewBox="0 0 468.95615 318.3006"
   sodipodi:docname="049b8f64b8cb9f4b00cc575d66dbc78e.cdr"
   xmlns:inkscape="http://www.inkscape.org/namespaces/inkscape"
   xmlns:sodipodi="http://sodipodi.sourceforge.net/DTD/sodipodi-0.dtd"
   xmlns="http://www.w3.org/2000/svg"
   xmlns:svg="http://www.w3.org/2000/svg">
  <defs
     id="defs17" />
  <sodipodi:namedview
     id="namedview15"
     pagecolor="#ffffff"
     bordercolor="#666666"
     borderopacity="1.0"
     inkscape:pageshadow="2"
     inkscape:pageopacity="0.0"
     inkscape:pagecheckerboard="0" />
  <g
     id="Layer1000"
     transform="translate(-58.648548,-194.0607)">
    <path
       d="m 322.7336,277.4735 c 15.0937,-6.1874 28.9434,-18.4484 43.9031,-30.7723 24.9151,-22.8886 52.3925,-49.0249 78.2216,-37.7566 26.5381,8.0951 35.2817,36.1414 52.8907,56.2144 7.7759,8.8639 7.7111,5.116 29.8557,15.7861 -9.3216,6.0954 -36.1169,16.6561 -38.7722,22.3087 -29.8646,63.5649 -39.9658,73.6234 -62.3893,98.2494 -28.3407,31.1241 -79.7353,54.9017 -124.5157,54.0825 -78.1611,-1.4278 -200.3972,-87.6345 -243.2724,-152.8274 -0.4285,-8.2029 20.0303,43.6056 100.2438,50.1086 49.8096,5.034 108.6904,-31.879 125.1013,-44.5864 -15.9465,-22.3073 -60.1035,-56.5654 -69.9847,-76.1763 8.2004,2.3808 12.8866,7.787 21.7326,12.4608 4.7951,2.5336 -15.1634,-17.8373 -15.7764,-22.4742 10.9373,2.5971 13.9153,7.4838 25.3085,12.7233 -5.3808,-9.2965 -28.0914,-29.3428 -21.5364,-28.6461 31.4675,13.6758 58.8945,39.769 98.9898,71.3055 z"
       style="fill:#00b3f5;fill-rule:evenodd"
       id="path2" />
    <path
       d="m 266.9536,228.0923 26.4438,11.5075 -22.1944,-24.3907 c 9.993,4.2358 19.986,8.4719 29.979,12.7078 -9.6818,-11.2853 -26.4887,-20.6961 -29.0455,-33.8562 l 93.935,53.1065 c -12.7958,10.364 -27.822,24.334 -43.338,30.3063 -19.3873,-15.5409 -39.7179,-30.4832 -55.7799,-49.3812 z"
       style="fill:#007dcd;fill-rule:evenodd"
       id="path4" />
    <path
       d="m 455.1104,239.9984 a 16.8751,22.5 0 0 1 16.8751,22.5 16.8751,22.5 0 1 1 -16.8751,-22.5 z"
       style="fill:#ffffff;fill-rule:evenodd"
       id="path6" />
    <path
       d="m 324.2358,417.6876 c -4.9124,17.2944 -2.4987,23.4425 2.6768,29.6178 5.0352,7.6711 17.998,2.2617 29.7822,-1.3521 17.625,-5.4051 40.0958,-17.2738 62.2741,-36.9009 7.4528,-6.5954 13.6306,-14.0292 19.3305,-20.6912 13.0533,-15.2572 20.149,-29.7697 11.1096,-42.7419 -5.6602,-5.3785 -20.5665,-9.9454 -34.7675,-6.5254 -34.0855,8.2089 -78.683,37.3227 -90.4057,78.5937 z"
       style="fill:#ade6fc;fill-rule:evenodd"
       id="path8" />
    <path
       d="m 321.7224,497.3613 a 131.25,7.5 0 0 1 131.25,7.5 131.25,7.5 0 1 1 -131.25,-7.5 z"
       style="fill:#c5c6ca;fill-rule:evenodd"
       id="path10" />
  </g>
</svg>
