<svg id="visual" viewBox="0 0 1370 720" width="1370" height="720" xmlns="http://www.w3.org/2000/svg" xmlns:xlink="http://www.w3.org/1999/xlink" version="1.1"><rect x="0" y="0" width="1370" height="720" fill="#001220"></rect><path d="M0 323L32.7 310.8C65.3 298.7 130.7 274.3 195.8 278.7C261 283 326 316 391.2 325C456.3 334 521.7 319 587 318.2C652.3 317.3 717.7 330.7 783 331.8C848.3 333 913.7 322 978.8 304.2C1044 286.3 1109 261.7 1174.2 258C1239.3 254.3 1304.7 271.7 1337.3 280.3L1370 289L1370 721L1337.3 721C1304.7 721 1239.3 721 1174.2 721C1109 721 1044 721 978.8 721C913.7 721 848.3 721 783 721C717.7 721 652.3 721 587 721C521.7 721 456.3 721 391.2 721C326 721 261 721 195.8 721C130.7 721 65.3 721 32.7 721L0 721Z" fill="#fa7268"></path><path d="M0 421L32.7 413.8C65.3 406.7 130.7 392.3 195.8 373.2C261 354 326 330 391.2 337C456.3 344 521.7 382 587 391.2C652.3 400.3 717.7 380.7 783 369.3C848.3 358 913.7 355 978.8 343C1044 331 1109 310 1174.2 298.3C1239.3 286.7 1304.7 284.3 1337.3 283.2L1370 282L1370 721L1337.3 721C1304.7 721 1239.3 721 1174.2 721C1109 721 1044 721 978.8 721C913.7 721 848.3 721 783 721C717.7 721 652.3 721 587 721C521.7 721 456.3 721 391.2 721C326 721 261 721 195.8 721C130.7 721 65.3 721 32.7 721L0 721Z" fill="#ef5f67"></path><path d="M0 365L32.7 385C65.3 405 130.7 445 195.8 467.3C261 489.7 326 494.3 391.2 469.2C456.3 444 521.7 389 587 376.2C652.3 363.3 717.7 392.7 783 421.2C848.3 449.7 913.7 477.3 978.8 489.2C1044 501 1109 497 1174.2 471.5C1239.3 446 1304.7 399 1337.3 375.5L1370 352L1370 721L1337.3 721C1304.7 721 1239.3 721 1174.2 721C1109 721 1044 721 978.8 721C913.7 721 848.3 721 783 721C717.7 721 652.3 721 587 721C521.7 721 456.3 721 391.2 721C326 721 261 721 195.8 721C130.7 721 65.3 721 32.7 721L0 721Z" fill="#e34c67"></path><path d="M0 520L32.7 517.7C65.3 515.3 130.7 510.7 195.8 518.3C261 526 326 546 391.2 536.5C456.3 527 521.7 488 587 490.2C652.3 492.3 717.7 535.7 783 548.5C848.3 561.3 913.7 543.7 978.8 529.7C1044 515.7 1109 505.3 1174.2 503.8C1239.3 502.3 1304.7 509.7 1337.3 513.3L1370 517L1370 721L1337.3 721C1304.7 721 1239.3 721 1174.2 721C1109 721 1044 721 978.8 721C913.7 721 848.3 721 783 721C717.7 721 652.3 721 587 721C521.7 721 456.3 721 391.2 721C326 721 261 721 195.8 721C130.7 721 65.3 721 32.7 721L0 721Z" fill="#d53867"></path><path d="M0 631L32.7 634.2C65.3 637.3 130.7 643.7 195.8 629C261 614.3 326 578.7 391.2 567.7C456.3 556.7 521.7 570.3 587 577.2C652.3 584 717.7 584 783 590.5C848.3 597 913.7 610 978.8 619.3C1044 628.7 1109 634.3 1174.2 627.3C1239.3 620.3 1304.7 600.7 1337.3 590.8L1370 581L1370 721L1337.3 721C1304.7 721 1239.3 721 1174.2 721C1109 721 1044 721 978.8 721C913.7 721 848.3 721 783 721C717.7 721 652.3 721 587 721C521.7 721 456.3 721 391.2 721C326 721 261 721 195.8 721C130.7 721 65.3 721 32.7 721L0 721Z" fill="#c62368"></path></svg>