<svg id="visual" viewBox="0 0 1370 750" width="1370" height="750" xmlns="http://www.w3.org/2000/svg" xmlns:xlink="http://www.w3.org/1999/xlink" version="1.1"><rect x="0" y="0" width="1370" height="750" fill="#00070c"></rect><path d="M0 465L32.7 476.2C65.3 487.3 130.7 509.7 195.8 522C261 534.3 326 536.7 391.2 522.5C456.3 508.3 521.7 477.7 587 464.7C652.3 451.7 717.7 456.3 783 462.5C848.3 468.7 913.7 476.3 978.8 486.7C1044 497 1109 510 1174.2 507.2C1239.3 504.3 1304.7 485.7 1337.3 476.3L1370 467L1370 751L1337.3 751C1304.7 751 1239.3 751 1174.2 751C1109 751 1044 751 978.8 751C913.7 751 848.3 751 783 751C717.7 751 652.3 751 587 751C521.7 751 456.3 751 391.2 751C326 751 261 751 195.8 751C130.7 751 65.3 751 32.7 751L0 751Z" fill="#4facf7"></path><path d="M0 582L32.7 573C65.3 564 130.7 546 195.8 542.5C261 539 326 550 391.2 555.5C456.3 561 521.7 561 587 550.8C652.3 540.7 717.7 520.3 783 522.2C848.3 524 913.7 548 978.8 555C1044 562 1109 552 1174.2 544.3C1239.3 536.7 1304.7 531.3 1337.3 528.7L1370 526L1370 751L1337.3 751C1304.7 751 1239.3 751 1174.2 751C1109 751 1044 751 978.8 751C913.7 751 848.3 751 783 751C717.7 751 652.3 751 587 751C521.7 751 456.3 751 391.2 751C326 751 261 751 195.8 751C130.7 751 65.3 751 32.7 751L0 751Z" fill="#1394fe"></path><path d="M0 569L32.7 579C65.3 589 130.7 609 195.8 615.7C261 622.3 326 615.7 391.2 615.5C456.3 615.3 521.7 621.7 587 614.2C652.3 606.7 717.7 585.3 783 572.2C848.3 559 913.7 554 978.8 566.3C1044 578.7 1109 608.3 1174.2 619.5C1239.3 630.7 1304.7 623.3 1337.3 619.7L1370 616L1370 751L1337.3 751C1304.7 751 1239.3 751 1174.2 751C1109 751 1044 751 978.8 751C913.7 751 848.3 751 783 751C717.7 751 652.3 751 587 751C521.7 751 456.3 751 391.2 751C326 751 261 751 195.8 751C130.7 751 65.3 751 32.7 751L0 751Z" fill="#0079ff"></path><path d="M0 650L32.7 643.8C65.3 637.7 130.7 625.3 195.8 619C261 612.7 326 612.3 391.2 620.2C456.3 628 521.7 644 587 652.7C652.3 661.3 717.7 662.7 783 655.7C848.3 648.7 913.7 633.3 978.8 624.3C1044 615.3 1109 612.7 1174.2 620.2C1239.3 627.7 1304.7 645.3 1337.3 654.2L1370 663L1370 751L1337.3 751C1304.7 751 1239.3 751 1174.2 751C1109 751 1044 751 978.8 751C913.7 751 848.3 751 783 751C717.7 751 652.3 751 587 751C521.7 751 456.3 751 391.2 751C326 751 261 751 195.8 751C130.7 751 65.3 751 32.7 751L0 751Z" fill="#2856ff"></path><path d="M0 707L32.7 699.2C65.3 691.3 130.7 675.7 195.8 668.2C261 660.7 326 661.3 391.2 664.2C456.3 667 521.7 672 587 673.3C652.3 674.7 717.7 672.3 783 675.7C848.3 679 913.7 688 978.8 686.7C1044 685.3 1109 673.7 1174.2 672C1239.3 670.3 1304.7 678.7 1337.3 682.8L1370 687L1370 751L1337.3 751C1304.7 751 1239.3 751 1174.2 751C1109 751 1044 751 978.8 751C913.7 751 848.3 751 783 751C717.7 751 652.3 751 587 751C521.7 751 456.3 751 391.2 751C326 751 261 751 195.8 751C130.7 751 65.3 751 32.7 751L0 751Z" fill="#6600ff"></path></svg>