<svg id="visual" viewBox="0 0 1600 750" width="1600" height="750" xmlns="http://www.w3.org/2000/svg" xmlns:xlink="http://www.w3.org/1999/xlink" version="1.1"><rect x="0" y="0" width="1600" height="750" fill="#001122"></rect><path d="M0 520L38.2 522C76.3 524 152.7 528 228.8 521.5C305 515 381 498 457.2 501.5C533.3 505 609.7 529 685.8 539C762 549 838 545 914.2 541.8C990.3 538.7 1066.7 536.3 1142.8 539.5C1219 542.7 1295 551.3 1371.2 543.3C1447.3 535.3 1523.7 510.7 1561.8 498.3L1600 486L1600 751L1561.8 751C1523.7 751 1447.3 751 1371.2 751C1295 751 1219 751 1142.8 751C1066.7 751 990.3 751 914.2 751C838 751 762 751 685.8 751C609.7 751 533.3 751 457.2 751C381 751 305 751 228.8 751C152.7 751 76.3 751 38.2 751L0 751Z" fill="#734ff7"></path><path d="M0 604L38.2 592C76.3 580 152.7 556 228.8 552C305 548 381 564 457.2 564.3C533.3 564.7 609.7 549.3 685.8 553.2C762 557 838 580 914.2 592.3C990.3 604.7 1066.7 606.3 1142.8 597.3C1219 588.3 1295 568.7 1371.2 556C1447.3 543.3 1523.7 537.7 1561.8 534.8L1600 532L1600 751L1561.8 751C1523.7 751 1447.3 751 1371.2 751C1295 751 1219 751 1142.8 751C1066.7 751 990.3 751 914.2 751C838 751 762 751 685.8 751C609.7 751 533.3 751 457.2 751C381 751 305 751 228.8 751C152.7 751 76.3 751 38.2 751L0 751Z" fill="#008cff"></path><path d="M0 583L38.2 590.5C76.3 598 152.7 613 228.8 615.7C305 618.3 381 608.7 457.2 602.5C533.3 596.3 609.7 593.7 685.8 594.2C762 594.7 838 598.3 914.2 595C990.3 591.7 1066.7 581.3 1142.8 589C1219 596.7 1295 622.3 1371.2 622.2C1447.3 622 1523.7 596 1561.8 583L1600 570L1600 751L1561.8 751C1523.7 751 1447.3 751 1371.2 751C1295 751 1219 751 1142.8 751C1066.7 751 990.3 751 914.2 751C838 751 762 751 685.8 751C609.7 751 533.3 751 457.2 751C381 751 305 751 228.8 751C152.7 751 76.3 751 38.2 751L0 751Z" fill="#00b0f0"></path><path d="M0 627L38.2 632.2C76.3 637.3 152.7 647.7 228.8 648.2C305 648.7 381 639.3 457.2 637.3C533.3 635.3 609.7 640.7 685.8 645.3C762 650 838 654 914.2 653.8C990.3 653.7 1066.7 649.3 1142.8 643.7C1219 638 1295 631 1371.2 628.8C1447.3 626.7 1523.7 629.3 1561.8 630.7L1600 632L1600 751L1561.8 751C1523.7 751 1447.3 751 1371.2 751C1295 751 1219 751 1142.8 751C1066.7 751 990.3 751 914.2 751C838 751 762 751 685.8 751C609.7 751 533.3 751 457.2 751C381 751 305 751 228.8 751C152.7 751 76.3 751 38.2 751L0 751Z" fill="#00c7be"></path><path d="M0 709L38.2 708.7C76.3 708.3 152.7 707.7 228.8 707C305 706.3 381 705.7 457.2 698.8C533.3 692 609.7 679 685.8 675.2C762 671.3 838 676.7 914.2 685.2C990.3 693.7 1066.7 705.3 1142.8 710.5C1219 715.7 1295 714.3 1371.2 712.7C1447.3 711 1523.7 709 1561.8 708L1600 707L1600 751L1561.8 751C1523.7 751 1447.3 751 1371.2 751C1295 751 1219 751 1142.8 751C1066.7 751 990.3 751 914.2 751C838 751 762 751 685.8 751C609.7 751 533.3 751 457.2 751C381 751 305 751 228.8 751C152.7 751 76.3 751 38.2 751L0 751Z" fill="#64c724"></path></svg>