<svg id="visual" viewBox="0 0 1600 800" width="1600" height="800" xmlns="http://www.w3.org/2000/svg" xmlns:xlink="http://www.w3.org/1999/xlink" version="1.1"><rect x="0" y="0" width="1600" height="750" fill="#ebebeb"></rect><path d="M0 513L38.2 514.2C76.3 515.3 152.7 517.7 228.8 522.7C305 527.7 381 535.3 457.2 531.8C533.3 528.3 609.7 513.7 685.8 505.7C762 497.7 838 496.3 914.2 503.5C990.3 510.7 1066.7 526.3 1142.8 535.3C1219 544.3 1295 546.7 1371.2 534.8C1447.3 523 1523.7 497 1561.8 484L1600 471L1600 751L1561.8 751C1523.7 751 1447.3 751 1371.2 751C1295 751 1219 751 1142.8 751C1066.7 751 990.3 751 914.2 751C838 751 762 751 685.8 751C609.7 751 533.3 751 457.2 751C381 751 305 751 228.8 751C152.7 751 76.3 751 38.2 751L0 751Z" fill="#4f8cf7"></path><path d="M0 529L38.2 542.3C76.3 555.7 152.7 582.3 228.8 590.2C305 598 381 587 457.2 574.3C533.3 561.7 609.7 547.3 685.8 552.5C762 557.7 838 582.3 914.2 588.3C990.3 594.3 1066.7 581.7 1142.8 567.7C1219 553.7 1295 538.3 1371.2 544.3C1447.3 550.3 1523.7 577.7 1561.8 591.3L1600 605L1600 751L1561.8 751C1523.7 751 1447.3 751 1371.2 751C1295 751 1219 751 1142.8 751C1066.7 751 990.3 751 914.2 751C838 751 762 751 685.8 751C609.7 751 533.3 751 457.2 751C381 751 305 751 228.8 751C152.7 751 76.3 751 38.2 751L0 751Z" fill="#00a8f4"></path><path d="M0 627L38.2 621.5C76.3 616 152.7 605 228.8 602.8C305 600.7 381 607.3 457.2 609.5C533.3 611.7 609.7 609.3 685.8 606C762 602.7 838 598.3 914.2 593.3C990.3 588.3 1066.7 582.7 1142.8 586.5C1219 590.3 1295 603.7 1371.2 604.5C1447.3 605.3 1523.7 593.7 1561.8 587.8L1600 582L1600 751L1561.8 751C1523.7 751 1447.3 751 1371.2 751C1295 751 1219 751 1142.8 751C1066.7 751 990.3 751 914.2 751C838 751 762 751 685.8 751C609.7 751 533.3 751 457.2 751C381 751 305 751 228.8 751C152.7 751 76.3 751 38.2 751L0 751Z" fill="#00bce1"></path><path d="M0 637L38.2 639.5C76.3 642 152.7 647 228.8 651.8C305 656.7 381 661.3 457.2 662.5C533.3 663.7 609.7 661.3 685.8 657.3C762 653.3 838 647.7 914.2 645.7C990.3 643.7 1066.7 645.3 1142.8 644.5C1219 643.7 1295 640.3 1371.2 638.2C1447.3 636 1523.7 635 1561.8 634.5L1600 634L1600 751L1561.8 751C1523.7 751 1447.3 751 1371.2 751C1295 751 1219 751 1142.8 751C1066.7 751 990.3 751 914.2 751C838 751 762 751 685.8 751C609.7 751 533.3 751 457.2 751C381 751 305 751 228.8 751C152.7 751 76.3 751 38.2 751L0 751Z" fill="#00c9b0"></path><path d="M0 734L38.2 726.5C76.3 719 152.7 704 228.8 702.8C305 701.7 381 714.3 457.2 710.8C533.3 707.3 609.7 687.7 685.8 686.5C762 685.3 838 702.7 914.2 708.2C990.3 713.7 1066.7 707.3 1142.8 698.2C1219 689 1295 677 1371.2 682C1447.3 687 1523.7 709 1561.8 720L1600 731L1600 751L1561.8 751C1523.7 751 1447.3 751 1371.2 751C1295 751 1219 751 1142.8 751C1066.7 751 990.3 751 914.2 751C838 751 762 751 685.8 751C609.7 751 533.3 751 457.2 751C381 751 305 751 228.8 751C152.7 751 76.3 751 38.2 751L0 751Z" fill="#29c724"></path></svg>